<svg width="413" height="81" viewBox="0 0 413 81" fill="none" xmlns="http://www.w3.org/2000/svg">
<path d="M38.79 81L36.375 68.235H18.205L15.79 81H0.15L15.675 0.499995H39.48L54.2 81H38.79ZM27.06 15.45L22.575 42.245L20.045 55.93H34.42L31.775 42.245L27.29 15.45H27.06ZM60.897 0.499995H91.487C96.317 2.11 100.419 5.1 103.792 9.47C107.242 13.7633 108.967 19.0533 108.967 25.34C108.967 35.6133 104.904 43.165 96.777 47.995L108.392 81H92.292L82.517 51.675H76.422V81H60.897V0.499995ZM76.422 14.3V38.795H86.312C87.6153 38.4883 89.0336 37.185 90.567 34.885C92.177 32.5083 92.982 29.7483 92.982 26.605C92.982 23.4617 92.292 20.7017 90.912 18.325C89.6086 15.9483 88.3053 14.6067 87.002 14.3H76.422ZM129.146 14.3H111.781V0.499995H162.151V14.3H144.786V81H129.146V14.3ZM176.182 0.499995H203.782V14.3H181.702L181.357 14.99L199.757 48.57C203.513 55.3167 205.392 60.4533 205.392 63.98C205.392 71.7233 202.823 77.3967 197.687 81H167.212V67.66H191.017L191.362 66.97L170.662 29.825C167.672 24.4583 166.177 20.0883 166.177 16.715C166.177 8.74166 169.512 3.33666 176.182 0.499995ZM228.932 14.3V43.05H239.167C243.383 39.6 245.492 34.54 245.492 27.87C245.492 25.0333 244.917 22.35 243.767 19.82C242.693 17.29 241.39 15.45 239.857 14.3H228.932ZM213.407 81V0.499995H244.572C249.785 2.8 253.887 6.32666 256.877 11.08C259.943 15.8333 261.477 21.3917 261.477 27.755C261.477 34.0417 259.905 39.8683 256.762 45.235C253.618 50.6017 248.98 54.3967 242.847 56.62H228.932V81H213.407ZM299 81L296.585 68.235H278.415L276 81H260.36L275.885 0.499995H299.69L314.41 81H299ZM287.27 15.45L282.785 42.245L280.255 55.93H294.63L291.985 42.245L287.5 15.45H287.27ZM342.294 67.66H362.534V81H333.324C328.264 76.2467 324.431 70.2283 321.824 62.945C319.217 55.6617 317.914 48.1867 317.914 40.52C317.914 32.7767 319.371 25.34 322.284 18.21C325.197 11.08 329.529 5.17666 335.279 0.499995H362.534V14.3H342.294C340.224 16.6767 338.422 20.51 336.889 25.8C335.432 31.09 334.704 36.15 334.704 40.98C334.704 45.81 335.432 50.87 336.889 56.16C338.422 61.45 340.224 65.2833 342.294 67.66ZM370.97 81V0.499995H412.255V14.3H386.725V33.505H409.495V46.845H386.725V67.66H412.715V81H370.97Z" fill="#E2F4FF"/>
</svg>
